<svg width="25" height="25" viewBox="0 0 25 25" fill="none" xmlns="http://www.w3.org/2000/svg">
<path d="M19.0886 2.87764C17.0754 2.73423 15.3001 3.89583 15.1171 5.48766L14.6596 9.63216H19.8206V12.5003H14.3302L13.5249 19.7711C13.443 20.5213 13.1727 21.2514 12.7296 21.9195C12.2866 22.5876 11.6794 23.1806 10.9431 23.6643C10.2067 24.148 9.35567 24.513 8.43879 24.7382C7.52191 24.9635 6.55728 25.0446 5.60029 24.9768C4.46513 24.9014 3.368 24.6198 2.39591 24.1543C1.42382 23.6888 0.603501 23.0522 0 22.2951L2.74524 20.144C3.18448 21.2052 4.39239 22.0226 5.91142 22.123C7.9246 22.2664 9.69985 21.1048 9.88287 19.513L10.6698 12.5003H5.17936V9.63216H10.981L11.4751 5.22953C11.8228 2.07455 15.3734 -0.263003 19.3997 0.023813C21.7972 0.181562 23.8104 1.22844 25 2.70555L22.2548 4.85667C21.8155 3.79545 20.6076 2.97802 19.0886 2.87764V2.87764Z" fill="#6CC04A"/>
</svg>
