<svg width="25" height="25" viewBox="0 0 25 25" fill="none" xmlns="http://www.w3.org/2000/svg">
<path d="M9.02778 0C7.73003 0 6.65365 1.00098 6.34549 2.35352C6.31076 2.35352 6.28472 2.34375 6.25 2.34375C4.71788 2.34375 3.47222 3.74512 3.47222 5.46875C3.47222 5.70313 3.49826 5.93262 3.54601 6.15234C2.27865 6.73828 1.38889 8.13477 1.38889 9.76562C1.38889 10.3809 1.52778 10.9521 1.74913 11.4697C0.707465 12.1436 0 13.3936 0 14.8438C0 16.4697 0.885417 17.8662 2.1441 18.4521C2.10503 18.6768 2.08333 18.9062 2.08333 19.1406C2.08333 21.084 3.4809 22.6562 5.20833 22.6562C5.38628 22.6562 5.5599 22.6318 5.72917 22.5977C6.14583 23.9893 7.30035 25 8.68056 25C10.408 25 11.8056 23.4277 11.8056 21.4844V3.125C11.8056 1.40137 10.5599 0 9.02778 0ZM25 14.8438C25 13.3936 24.2925 12.1436 23.2509 11.4697C23.4766 10.9521 23.6111 10.3809 23.6111 9.76562C23.6111 8.13477 22.7214 6.73828 21.454 6.15234C21.4974 5.93262 21.5278 5.70313 21.5278 5.46875C21.5278 3.74512 20.2821 2.34375 18.75 2.34375C18.7153 2.34375 18.6849 2.35352 18.6545 2.35352C18.3464 1.00098 17.27 0 15.9722 0C14.4401 0 13.1944 1.39648 13.1944 3.125V21.4844C13.1944 23.4277 14.592 25 16.3194 25C17.6997 25 18.8542 23.9893 19.2708 22.5977C19.4401 22.6318 19.6137 22.6562 19.7917 22.6562C21.5191 22.6562 22.9167 21.084 22.9167 19.1406C22.9167 18.9062 22.895 18.6768 22.8559 18.4521C24.1146 17.8662 25 16.4697 25 14.8438Z" fill="#E3CFB1"/>
</svg>
