<svg width="25" height="25" viewBox="0 0 25 25" fill="none" xmlns="http://www.w3.org/2000/svg">
<path fill-rule="evenodd" clip-rule="evenodd" d="M8.33333 19.6429H10.4167V21.4286H4.16667V19.6429H6.25V16.0714H4.16667V14.2857H8.33333V19.6429ZM25 6.25V23.2143C25 24.1964 24.0625 25 22.9167 25H2.08333C0.9375 25 0 24.1964 0 23.2143V1.78571C0 0.803571 0.9375 0 2.08333 0H17.7083L25 6.25ZM22.9167 7.14286L16.6667 1.78571H2.08333V23.2143H22.9167V7.14286ZM16.6667 5.35714H12.5V7.14286H14.5833V10.7143H12.5V12.5H18.75V10.7143H16.6667V5.35714ZM4.16667 5.35714H10.4167V12.5H4.16667V5.35714ZM6.25 10.7143H8.33333V7.14286H6.25V10.7143ZM12.5 14.2857H18.75V21.4286H12.5V14.2857ZM14.5833 19.6429H16.6667V16.0714H14.5833V19.6429Z" fill="#5A5A5A"/>
</svg>
