<svg width="25" height="25" viewBox="0 0 25 25" fill="none" xmlns="http://www.w3.org/2000/svg">
<path d="M12.5 0C5.59687 0 0 1.74844 0 3.90625V7.03125C0 9.18906 5.59687 10.9375 12.5 10.9375C19.4031 10.9375 25 9.18906 25 7.03125V3.90625C25 1.74844 19.4031 0 12.5 0Z" fill="#7FCDEA"/>
<path d="M12.5 13.2812C5.59687 13.2812 0 11.5328 0 9.375V14.0625C0 16.2203 5.59687 17.9688 12.5 17.9688C19.4031 17.9688 25 16.2203 25 14.0625V9.375C25 11.5328 19.4031 13.2812 12.5 13.2812Z" fill="#7FCDEA"/>
<path d="M12.5 20.3125C5.59687 20.3125 0 18.5641 0 16.4062V21.0938C0 23.2516 5.59687 25 12.5 25C19.4031 25 25 23.2516 25 21.0938V16.4062C25 18.5641 19.4031 20.3125 12.5 20.3125Z" fill="#7FCDEA"/>
</svg>
