<svg width="25" height="25" viewBox="0 0 25 25" fill="none" xmlns="http://www.w3.org/2000/svg">
<path d="M11.2451 0H16.4645V18.7614C13.791 19.158 11.8229 19.314 9.69335 19.314C3.31844 19.3088 0 17.0752 0 12.7856C0 8.65245 3.51996 5.97005 8.97457 5.97005C9.82101 5.97005 10.4658 6.0223 11.2451 6.1788V0ZM11.428 9.55982C10.8166 9.40324 10.3129 9.35107 9.66798 9.35107C7.02806 9.35107 5.5032 10.6139 5.5032 12.8271C5.5032 14.9819 6.96095 16.1717 9.63448 16.1717C10.2121 16.1717 10.6823 16.1462 11.428 16.0679V9.55982V9.55982Z" fill="#2BA977"/>
<path d="M25 6.47388V15.8674C25 19.1024 24.6911 20.6581 23.7842 21.9993C22.9377 23.2887 21.8227 24.1018 19.5186 24.9999L14.6753 23.21C16.9794 22.3702 18.0944 21.6282 18.8066 20.4958C19.5521 19.3378 19.7872 17.9966 19.7872 14.4688V6.47395H25V6.47388Z" fill="#2BA977"/>
<path d="M19.2612 0H24.4807V4.15923H19.2612V0Z" fill="#2BA977"/>
</svg>
