<svg width="25" height="25" viewBox="0 0 25 25" fill="none" xmlns="http://www.w3.org/2000/svg">
<path d="M18.75 15.625C17.5 15.625 16.5625 16.0938 15.625 16.875L10.625 14.0625C10.7813 13.5937 10.9375 12.9688 10.9375 12.5C10.9375 12.0312 10.7813 11.4063 10.625 10.9375L15.625 8.125C16.5625 8.90625 17.5 9.375 18.75 9.375C21.4063 9.375 23.4375 7.34375 23.4375 4.6875C23.4375 2.03125 21.4063 0 18.75 0C16.0937 0 14.0625 2.03125 14.0625 4.6875V5.46875L8.59375 8.4375C7.96875 8.125 7.1875 7.8125 6.25 7.8125C3.75 7.8125 1.5625 9.84375 1.5625 12.5C1.5625 15 3.75 17.1875 6.25 17.1875C7.1875 17.1875 7.96875 16.875 8.59375 16.5625L14.0625 19.5312V20.3125C14.0625 22.9688 16.0937 25 18.75 25C21.4063 25 23.4375 22.9688 23.4375 20.3125C23.4375 17.6562 21.4063 15.625 18.75 15.625Z" fill="#0E88D3"/>
</svg>
