<svg width="25" height="25" viewBox="0 0 25 25" fill="none" xmlns="http://www.w3.org/2000/svg">
<path d="M7.03125 21.875C7.03125 21.441 6.80339 21.072 6.34766 20.7682C5.89193 20.4644 5.33854 20.3125 4.6875 20.3125C4.03646 20.3125 3.48307 20.4644 3.02734 20.7682C2.57161 21.072 2.34375 21.441 2.34375 21.875C2.34375 22.309 2.57161 22.678 3.02734 22.9818C3.48307 23.2856 4.03646 23.4375 4.6875 23.4375C5.33854 23.4375 5.89193 23.2856 6.34766 22.9818C6.80339 22.678 7.03125 22.309 7.03125 21.875ZM7.03125 3.125C7.03125 2.69097 6.80339 2.32205 6.34766 2.01823C5.89193 1.71441 5.33854 1.5625 4.6875 1.5625C4.03646 1.5625 3.48307 1.71441 3.02734 2.01823C2.57161 2.32205 2.34375 2.69097 2.34375 3.125C2.34375 3.55903 2.57161 3.92795 3.02734 4.23177C3.48307 4.53559 4.03646 4.6875 4.6875 4.6875C5.33854 4.6875 5.89193 4.53559 6.34766 4.23177C6.80339 3.92795 7.03125 3.55903 7.03125 3.125ZM22.6562 5.20833C22.6562 4.77431 22.4284 4.40538 21.9727 4.10156C21.5169 3.79774 20.9635 3.64583 20.3125 3.64583C19.6615 3.64583 19.1081 3.79774 18.6523 4.10156C18.1966 4.40538 17.9688 4.77431 17.9688 5.20833C17.9688 5.64236 18.1966 6.01128 18.6523 6.3151C19.1081 6.61892 19.6615 6.77083 20.3125 6.77083C20.9635 6.77083 21.5169 6.61892 21.9727 6.3151C22.4284 6.01128 22.6562 5.64236 22.6562 5.20833ZM25 5.20833C25 5.77257 24.7884 6.29612 24.3652 6.77897C23.9421 7.26183 23.3724 7.63889 22.6562 7.91016C22.6237 11.0243 20.7845 13.2704 17.1387 14.6484C16.0482 15.0608 14.3962 15.5002 12.1826 15.9668C10.0993 16.4008 8.71989 16.786 8.04443 17.1224C7.36898 17.4588 7.03125 18.0013 7.03125 18.75V19.1732C7.7474 19.4444 8.31706 19.8215 8.74023 20.3044C9.16341 20.7872 9.375 21.3108 9.375 21.875C9.375 22.7431 8.91927 23.4809 8.00781 24.0885C7.09635 24.6962 5.98958 25 4.6875 25C3.38542 25 2.27865 24.6962 1.36719 24.0885C0.455729 23.4809 0 22.7431 0 21.875C0 21.3108 0.211589 20.7872 0.634766 20.3044C1.05794 19.8215 1.6276 19.4444 2.34375 19.1732V5.82682C1.6276 5.55556 1.05794 5.17849 0.634766 4.69564C0.211589 4.21278 0 3.68924 0 3.125C0 2.25694 0.455729 1.5191 1.36719 0.911458C2.27865 0.303819 3.38542 0 4.6875 0C5.98958 0 7.09635 0.303819 8.00781 0.911458C8.91927 1.5191 9.375 2.25694 9.375 3.125C9.375 3.68924 9.16341 4.21278 8.74023 4.69564C8.31706 5.17849 7.7474 5.55556 7.03125 5.82682V13.916C7.91016 13.6339 9.16341 13.3247 10.791 12.9883C11.6862 12.8038 12.3983 12.6438 12.9272 12.5081C13.4562 12.3725 14.0299 12.2043 14.6484 12.0036C15.2669 11.8028 15.7471 11.5885 16.0889 11.3607C16.4307 11.1328 16.7603 10.8561 17.0776 10.5306C17.395 10.2051 17.6229 9.82802 17.7612 9.39941C17.8996 8.97081 17.9688 8.47439 17.9688 7.91016C17.2526 7.63889 16.6829 7.26183 16.2598 6.77897C15.8366 6.29612 15.625 5.77257 15.625 5.20833C15.625 4.34028 16.0807 3.60243 16.9922 2.99479C17.9036 2.38715 19.0104 2.08333 20.3125 2.08333C21.6146 2.08333 22.7214 2.38715 23.6328 2.99479C24.5443 3.60243 25 4.34028 25 5.20833Z" fill="#F2ADC7"/>
</svg>
