<svg width="25" height="25" viewBox="0 0 25 25" fill="none" xmlns="http://www.w3.org/2000/svg">
<path d="M23.892 3.94105C23.8764 3.91287 23.8545 3.8847 23.8294 3.86279C23.6729 3.70627 23.4194 3.70627 23.2629 3.86279L17.8701 9.25633L15.7448 7.13084L21.1408 1.73417C21.1659 1.70913 21.1846 1.68409 21.2034 1.65591C21.3161 1.46496 21.2535 1.2208 21.0626 1.10811C17.989 -0.707478 13.9639 -0.291146 11.3191 2.35084C9.22206 4.44816 8.52722 7.42196 9.23771 10.0953L0.0670225 19.2671C-0.0268754 19.361 -0.0206157 19.5144 0.0764121 19.6114L5.3879 24.9236C5.48493 25.0206 5.64142 25.0269 5.73219 24.933L14.8997 15.7643C17.5758 16.478 20.5493 15.7862 22.6495 13.6857C25.2911 11.0406 25.7074 7.01502 23.892 3.94105ZM21.0563 12.0893C19.2378 13.908 16.5085 14.2586 14.3395 13.1411L14.0641 13.4165L14.0609 13.4134L5.48493 21.9936L3.00602 19.5144L10.208 12.3115C10.208 12.3115 10.208 12.3147 10.2111 12.3147L11.8637 10.6618C10.7463 8.49253 11.0969 5.76289 12.9154 3.94418C13.5019 3.35708 14.2082 2.90352 14.986 2.61449C15.7639 2.32546 16.595 2.20777 17.4225 2.26946L13.2628 6.42652C13.0749 6.61464 12.9694 6.86965 12.9694 7.13554C12.9694 7.40142 13.0749 7.65644 13.2628 7.84456L17.1596 11.7418C17.3477 11.9297 17.6026 12.0353 17.8685 12.0353C18.1343 12.0353 18.3893 11.9297 18.5774 11.7418L22.734 7.58474C22.8498 9.20624 22.2832 10.8653 21.0563 12.0893Z" fill="#8F00FF"/>
</svg>
